<svg width="781" height="100" viewBox="0 0 781 100" fill="none" xmlns="http://www.w3.org/2000/svg">
<path d="M0 98.0199V14.2999H24.44V79.2999H62.14V98.0199H0Z" fill="black"/>
<path d="M87.9216 99.3199C84.0216 99.3199 80.3816 98.6266 77.0016 97.2399C73.7083 95.8533 71.065 93.6866 69.0716 90.7399C67.0783 87.7933 66.0816 84.0666 66.0816 79.5599C66.0816 73.0599 68.2483 68.0333 72.5816 64.4799C76.915 60.8399 83.4583 59.0199 92.2116 59.0199H108.202V57.8499C108.202 55.4233 107.205 53.6466 105.212 52.5199C103.218 51.3933 99.7083 50.8299 94.6816 50.8299C87.575 50.8299 80.555 51.9133 73.6216 54.0799V39.3899C76.7416 38.1766 80.6416 37.1799 85.3216 36.3999C90.0016 35.5333 94.7683 35.0999 99.6216 35.0999C109.415 35.0999 117.172 37.0933 122.892 41.0799C128.612 45.0666 131.472 51.3933 131.472 60.0599V98.0199H110.152L108.982 93.0799C106.815 94.9866 103.998 96.5033 100.532 97.6299C97.1516 98.7566 92.9483 99.3199 87.9216 99.3199ZM96.2416 85.0199C99.015 85.0199 101.355 84.5433 103.262 83.5899C105.255 82.6366 106.902 81.4666 108.202 80.0799V72.4099H96.3716C90.9983 72.4099 88.3116 74.5333 88.3116 78.7799C88.3116 82.9399 90.955 85.0199 96.2416 85.0199Z" fill="black"/>
<path d="M142.568 98.0199V14.2999H188.588C197.082 14.2999 203.538 16.2933 207.958 20.2799C212.378 24.2666 214.588 29.9866 214.588 37.4399C214.588 41.7733 213.765 45.4133 212.118 48.3599C210.558 51.3066 208.478 53.6466 205.878 55.3799C209.432 56.7666 212.248 58.8033 214.328 61.4899C216.495 64.0899 217.578 67.9899 217.578 73.1899C217.578 81.0766 215.152 87.1866 210.298 91.5199C205.445 95.8533 198.555 98.0199 189.628 98.0199H142.568ZM166.098 47.7099H181.958C187.938 47.7099 190.928 45.0233 190.928 39.6499C190.928 36.9633 190.192 34.9266 188.718 33.5399C187.332 32.1533 184.862 31.4599 181.308 31.4599H166.098V47.7099ZM166.098 80.9899H182.998C186.292 80.9899 188.718 80.2966 190.278 78.9099C191.838 77.5233 192.618 75.2266 192.618 72.0199C192.618 69.3333 191.838 67.2966 190.278 65.9099C188.718 64.5233 186.118 63.8299 182.478 63.8299H166.098V80.9899Z" fill="black"/>
<path d="M229.124 28.2099V10.5299H255.514V28.2099H229.124ZM231.074 98.0199V54.2099H222.104L224.184 36.3999H255.514V98.0199H231.074Z" fill="black"/>
<path d="M308.316 99.3199C304.33 99.3199 300.82 98.7999 297.786 97.7599C294.84 96.6333 292.11 95.1166 289.596 93.2099L288.426 98.0199H267.236V10.3999H291.676V38.6099C293.756 37.4833 296.183 36.6166 298.956 36.0099C301.816 35.4033 304.676 35.0999 307.536 35.0999C316.723 35.0999 323.916 37.5699 329.116 42.5099C334.403 47.3633 337.046 55.4233 337.046 66.6899C337.046 77.6966 334.446 85.8866 329.246 91.2599C324.046 96.6333 317.07 99.3199 308.316 99.3199ZM301.296 81.6399C305.11 81.6399 307.84 80.5133 309.486 78.2599C311.22 75.9199 312.086 72.1499 312.086 66.9499C312.086 61.6633 311.176 57.9799 309.356 55.8999C307.623 53.8199 304.936 52.7799 301.296 52.7799C297.31 52.7799 294.103 53.8633 291.676 56.0299V77.8699C294.363 80.3833 297.57 81.6399 301.296 81.6399Z" fill="black"/>
<path d="M367.131 99.3199C359.591 99.3199 354.218 97.7166 351.011 94.5099C347.805 91.3033 346.201 86.2766 346.201 79.4299V10.3999H370.641V76.6999C370.641 78.6066 371.031 79.9066 371.811 80.5999C372.591 81.2066 373.805 81.5099 375.451 81.5099C376.578 81.5099 377.661 81.4233 378.701 81.2499C379.828 81.0766 380.868 80.8166 381.821 80.4699V96.7199C379.568 97.5866 377.358 98.2366 375.191 98.6699C373.111 99.1033 370.424 99.3199 367.131 99.3199Z" fill="black"/>
<path d="M387.435 28.2099V10.5299H413.825V28.2099H387.435ZM389.385 98.0199V54.2099H380.415L382.495 36.3999H413.825V98.0199H389.385Z" fill="black"/>
<path d="M458.957 99.3199C446.65 99.3199 437.55 96.5899 431.657 91.1299C425.85 85.6699 422.947 77.6966 422.947 67.2099C422.947 56.8099 425.894 48.8799 431.787 43.4199C437.68 37.8733 446.737 35.0999 458.957 35.0999C471.264 35.0999 480.364 37.8733 486.257 43.4199C492.237 48.8799 495.227 56.8099 495.227 67.2099C495.227 77.6966 492.28 85.6699 486.387 91.1299C480.494 96.5899 471.35 99.3199 458.957 99.3199ZM458.957 81.5099C462.944 81.5099 465.804 80.3833 467.537 78.1299C469.357 75.8766 470.267 72.2366 470.267 67.2099C470.267 62.2699 469.357 58.6733 467.537 56.4199C465.804 54.0799 462.944 52.9099 458.957 52.9099C455.057 52.9099 452.24 54.0799 450.507 56.4199C448.774 58.6733 447.907 62.2699 447.907 67.2099C447.907 72.2366 448.774 75.8766 450.507 78.1299C452.24 80.3833 455.057 81.5099 458.957 81.5099Z" fill="black"/>
<path d="M501.785 98.0199V80.4699H521.025V98.0199H501.785Z" fill="black"/>
<path d="M548.226 33.54H531.976V24.18H548.226V1.52588e-05H557.586V24.18H581.636V33.54H557.586V88.4H581.636V98.02H556.156V89.83H548.226V33.54Z" fill="black"/>
<path d="M601.136 81.77H592.946V40.17H601.136V32.24H609.196V24.18H634.676V32.24H642.606V40.17H650.666V65.78H602.566V80.47H610.496V88.4H633.246V80.47H641.306V72.41H650.666V81.77H642.606V89.83H634.676V98.02H609.196V89.83H601.136V81.77ZM641.306 56.29V41.6H633.246V33.54H610.496V41.6H602.566V56.29H641.306Z" fill="black"/>
<path d="M666.136 81.77H657.946V40.17H666.136V32.24H674.196V24.18H699.676V32.24H707.606V40.17H715.666V49.66H706.306V41.6H698.246V33.54H675.496V41.6H667.566V80.47H675.496V88.4H698.246V80.47H706.306V72.41H715.666V81.77H707.606V89.83H699.676V98.02H674.196V89.83H666.136V81.77Z" fill="black"/>
<path d="M722.946 1.52588e-05H732.566V32.24H739.196V24.18H764.676V32.24H772.606V40.17H780.666V98.02H771.306V41.6H763.246V33.54H740.496V41.6H732.566V98.02H722.946V1.52588e-05Z" fill="black"/>
</svg>
